<svg id="Layer_1" data-name="Layer 1" xmlns="http://www.w3.org/2000/svg" viewBox="0 0 52.57 53.5"><defs><style>.cls-1{fill:#73d7ff;}.cls-2{fill:#fff;}.cls-3{fill:#003575;}</style></defs><title>clipboard</title><rect class="cls-1" x="5.94" y="10.61" width="30.47" height="36.46"/><circle class="cls-2" cx="37.81" cy="37.42" r="9.66" transform="translate(-7.32 65.57) rotate(-76.66)"/><path class="cls-2" d="M24.82,8.2a3.9,3.9,0,0,0-7.68,0H11.35v4.91H30.6V8.2Z"/><path class="cls-3" d="M6.93,48a2.35,2.35,0,0,1-2.35-2.35V12A2.35,2.35,0,0,1,6.93,9.64H9.74a.47.47,0,0,0,.46-.46V7.77a.94.94,0,0,1,.94-.94h5a.46.46,0,0,0,.4-.23,5.12,5.12,0,0,1,8.89,0,.47.47,0,0,0,.4.23h5a1,1,0,0,1,.95.94V9.18a.46.46,0,0,0,.46.46H35A2.35,2.35,0,0,1,37.35,12V23.21a.95.95,0,1,1-1.89,0V12a.46.46,0,0,0-.46-.46H32.2a.46.46,0,0,0-.46.46v1.41a1,1,0,0,1-.95.94H11.14a.94.94,0,0,1-.94-.94V12a.47.47,0,0,0-.46-.46H6.93a.46.46,0,0,0-.46.46V45.67a.46.46,0,0,0,.46.47H28A.94.94,0,1,1,28,48ZM12.54,8.71a.47.47,0,0,0-.46.47V12a.46.46,0,0,0,.46.46H29.39a.46.46,0,0,0,.46-.46V9.18a.47.47,0,0,0-.46-.47H24.92A1,1,0,0,1,24,8.09a3.24,3.24,0,0,0-6.13,0,.94.94,0,0,1-.89.62Z"/><path class="cls-3" d="M12.54,22.75a.94.94,0,1,1,0-1.88H29.39a.94.94,0,0,1,0,1.88Z"/><path class="cls-3" d="M12.54,28.37a.95.95,0,0,1,0-1.89h9.83a.95.95,0,0,1,0,1.89Z"/><path class="cls-3" d="M12.54,34a.94.94,0,0,1,0-1.88h9.83a.94.94,0,0,1,0,1.88Z"/><path class="cls-3" d="M12.54,39.6a.95.95,0,0,1,0-1.89h9.83a.95.95,0,0,1,0,1.89Z"/><path class="cls-3" d="M36.41,41a1,1,0,0,1-.67-.27l-2.81-2.81a1,1,0,0,1,0-1.34,1,1,0,0,1,1.34,0l1.81,1.82a.46.46,0,0,0,.33.13.42.42,0,0,0,.32-.13l4.63-4.62A.91.91,0,0,1,42,33.5a1,1,0,0,1,.67.28.94.94,0,0,1,0,1.33l-5.62,5.62A.94.94,0,0,1,36.41,41Z"/><path class="cls-3" d="M37.81,48A10.77,10.77,0,1,1,48.58,37.25,10.78,10.78,0,0,1,37.81,48Zm0-19.65a8.89,8.89,0,1,0,8.89,8.88A8.89,8.89,0,0,0,37.81,28.37Z"/><path class="cls-3" d="M21,9.66a.95.95,0,1,1,0-1.89.95.95,0,0,1,0,1.89Z"/></svg>