<svg id="Layer_1" data-name="Layer 1" xmlns="http://www.w3.org/2000/svg" viewBox="0 0 52.57 48.68"><defs><style>.cls-1{fill:#fff;}.cls-2{fill:#2a77aa;}</style></defs><title>clipboard2</title><circle class="cls-1" cx="37.81" cy="32.6" r="9.66" transform="translate(-2.63 61.87) rotate(-76.66)"/><path class="cls-2" d="M12.54,14.09a.95.95,0,0,1,0-1.89H29.39a.95.95,0,0,1,0,1.89Z"/><path class="cls-2" d="M12.54,21.34a.95.95,0,0,1,0-1.89H26.39a.95.95,0,0,1,0,1.89Z"/><path class="cls-2" d="M12.54,28.58a.94.94,0,0,1,0-1.88h9.83a.94.94,0,1,1,0,1.88Z"/><path class="cls-2" d="M12.54,35.83a.95.95,0,0,1,0-1.89h9.83a.95.95,0,0,1,0,1.89Z"/><path class="cls-2" d="M36.41,36.19a1,1,0,0,1-.67-.28l-2.81-2.8a1,1,0,0,1,0-1.34,1,1,0,0,1,1.34,0l1.81,1.82a.51.51,0,0,0,.33.13.46.46,0,0,0,.32-.13L41.36,29a.94.94,0,0,1,.66-.27,1,1,0,0,1,.67.27,1,1,0,0,1,0,1.34l-5.62,5.61A.91.91,0,0,1,36.41,36.19Z"/><path class="cls-2" d="M37.81,43.21A10.77,10.77,0,1,1,48.58,32.44,10.78,10.78,0,0,1,37.81,43.21Zm0-19.66a8.89,8.89,0,1,0,8.89,8.89A8.89,8.89,0,0,0,37.81,23.55Z"/><path class="cls-2" d="M35,4.82H6.93A2.35,2.35,0,0,0,4.58,7.17V40.86a2.35,2.35,0,0,0,2.35,2.35H28a.95.95,0,0,0,0-1.89H6.93a.45.45,0,0,1-.46-.46V7.17a.46.46,0,0,1,.46-.46H35a.46.46,0,0,1,.46.46V18.4a.95.95,0,0,0,1.89,0V7.17A2.35,2.35,0,0,0,35,4.82Z"/></svg>