<svg xmlns="http://www.w3.org/2000/svg" viewBox="0 0 67.06 61.19">
  <defs>
    <style>
      .cls-1 {
        fill: #e9eaeb;
      }

      .cls-2, .cls-5 {
        fill: #fff;
      }

      .cls-3, .cls-6 {
        fill: none;
      }

      .cls-3, .cls-4, .cls-5 {
        stroke: #2a5082;
      }

      .cls-3, .cls-4, .cls-5, .cls-6 {
        stroke-miterlimit: 10;
        stroke-width: 2px;
      }

      .cls-4 {
        fill: #a3d4ff;
      }

      .cls-6 {
        stroke: #bcc0c4;
      }
    </style>
  </defs>
  <title>idea</title>
  <g id="icons">
    <g>
      <circle class="cls-1" cx="33.35" cy="27.17" r="21"/>
      <path class="cls-2" d="M33.35,13.09A14,14,0,0,0,19.22,27.31,14.4,14.4,0,0,0,23.6,37.72C26,40,28.1,42,28.1,45.34H38.6c0-3.35,2.13-5.34,4.5-7.62a14.41,14.41,0,0,0,4.39-10.41A14,14,0,0,0,33.35,13.09Z"/>
      <path class="cls-3" d="M38.6,45.34c0-3.35,2.13-5.34,4.5-7.62a14.41,14.41,0,0,0,4.39-10.41,14.14,14.14,0,1,0-28.27,0A14.4,14.4,0,0,0,23.6,37.72C26,40,28.1,42,28.1,45.34"/>
      <path class="cls-4" d="M43.45,29.19v-4h-2.7A5.39,5.39,0,0,0,40,23.34l1.91-1.92-2.86-2.86-1.91,1.9a8.24,8.24,0,0,0-1.78-.74V17.07h-4v2.65a7.77,7.77,0,0,0-1.78.74l-1.91-1.91-2.86,2.86,1.91,1.93A5.6,5.6,0,0,0,26,25.15h-2.7v4H26A5.49,5.49,0,0,0,26.69,31l-1.91,1.89,2.86,2.85,1.91-1.91a7.35,7.35,0,0,0,1.78.74v2.74h4V34.52a7.35,7.35,0,0,0,1.78-.74l1.91,1.91,2.86-2.86L40,31a5.28,5.28,0,0,0,.74-1.76Z"/>
      <circle class="cls-5" cx="33.35" cy="27.17" r="2.83"/>
      <polyline class="cls-3" points="37.79 54.23 36.18 54.23 34.56 55.84 32.14 55.84 30.52 54.23 28.91 54.23"/>
      <line class="cls-3" x1="27.29" y1="47.76" x2="39.41" y2="47.76"/>
      <line class="cls-3" x1="27.29" y1="51" x2="39.41" y2="51"/>
      <line class="cls-6" x1="11.42" y1="33.38" x2="16.56" y2="32"/>
      <line class="cls-6" x1="17.35" y1="43.64" x2="21.11" y2="39.88"/>
      <line class="cls-6" x1="27.61" y1="5.35" x2="28.98" y2="10.48"/>
      <line class="cls-6" x1="17.35" y1="11.27" x2="21.11" y2="15.03"/>
      <line class="cls-6" x1="11.42" y1="21.53" x2="16.56" y2="22.91"/>
      <line class="cls-6" x1="55.64" y1="21.53" x2="50.51" y2="22.91"/>
      <line class="cls-6" x1="55.64" y1="33.38" x2="50.51" y2="32"/>
      <line class="cls-6" x1="49.72" y1="43.64" x2="45.96" y2="39.88"/>
      <line class="cls-6" x1="39.46" y1="5.35" x2="38.08" y2="10.48"/>
      <line class="cls-6" x1="49.72" y1="11.27" x2="45.96" y2="15.03"/>
    </g>
  </g>
</svg>
