<svg xmlns="http://www.w3.org/2000/svg" viewBox="0 0 67.06 61.19">
  <defs>
    <style>
      .cls-1 {
        fill: #e9eaeb;
      }

      .cls-2 {
        fill: #fff;
      }

      .cls-3 {
        fill: none;
      }

      .cls-3, .cls-4 {
        stroke: #2a5082;
        stroke-miterlimit: 10;
        stroke-width: 2px;
      }

      .cls-4 {
        fill: #a3d4ff;
      }
    </style>
  </defs>
  <title>learning</title>
  <g id="icons">
    <g>
      <circle class="cls-1" cx="33.53" cy="30.6" r="23.02"/>
      <path class="cls-2" d="M53.32,33.44V27H50.09a13.62,13.62,0,0,0-1.77-4.18l2.1-2.42-4.08-4.17-2.49,2a13.77,13.77,0,0,0-4.24-1.8l0-3.17H33.94V48h5.65l0-3.66a13.53,13.53,0,0,0,4.24-1.8l2.49,2.29,4.08-4.17-2.1-2.69a15.54,15.54,0,0,0,1.77-4.51Z"/>
      <path class="cls-3" d="M33.94,48h5.65l0-3.66a13.53,13.53,0,0,0,4.24-1.8l2.49,2.29,4.08-4.17-2.1-2.69a15.54,15.54,0,0,0,1.77-4.51l3.23,0V27H50.09a13.62,13.62,0,0,0-1.77-4.18l2.1-2.42-4.08-4.17-2.49,2a13.77,13.77,0,0,0-4.24-1.8l0-3.17H33.94"/>
      <line class="cls-3" x1="33.94" y1="10" x2="33.94" y2="51.19"/>
      <path class="cls-1" d="M34.74,34.23h1.39a4,4,0,1,0,0-8.08H34.74"/>
      <path class="cls-3" d="M34.74,34.23h1.39a4,4,0,1,0,0-8.08H34.74"/>
      <line class="cls-3" x1="33.94" y1="8.38" x2="33.94" y2="6.77"/>
      <line class="cls-3" x1="33.94" y1="54.43" x2="33.94" y2="52.81"/>
      <path class="cls-4" d="M29.09,13.23c-2.51-.17-5.31,1.3-6,3.39a5.66,5.66,0,0,0-5.76,5.9,6.81,6.81,0,0,0,0,.78c-2.33.85-4,3.48-4,6.72a8.85,8.85,0,0,0,1.76,5.38A6.27,6.27,0,0,0,15,37.78a6.73,6.73,0,0,0,6.63,6,6.54,6.54,0,0,0,6,4.13,8.4,8.4,0,0,0,6.32-2.41V15.65A7.32,7.32,0,0,0,29.09,13.23Z"/>
      <path class="cls-3" d="M28.41,23.61a5.8,5.8,0,0,1-5.53-5.53,4.71,4.71,0,0,1,.23-1.47"/>
      <path class="cls-3" d="M21.3,30.29c1.73,1.08,3.73.36,5.18-1.14,1.82-1.91,4.83-2.5,6.65-.36A5.81,5.81,0,0,1,33.94,30"/>
      <path class="cls-3" d="M33.86,20.54a5.1,5.1,0,0,1-5.45-3.42"/>
      <path class="cls-3" d="M33.86,40a4.42,4.42,0,0,0-5.45,2.71"/>
      <path class="cls-3" d="M22.72,38.61c-1.39-.41-2.78-1.45-2.78-2.77"/>
      <path class="cls-3" d="M22.09,44.73A5.2,5.2,0,0,1,21.3,42a5.31,5.31,0,0,1,5.54-5.17.64.64,0,0,0,.63-.69h0a2.88,2.88,0,0,1,3.24-2.75"/>
      <path class="cls-3" d="M18.14,27.38a2.9,2.9,0,0,1,2.76,2.76,2.48,2.48,0,0,1-2.76,2.41"/>
      <path class="cls-3" d="M21.83,25.15a2.94,2.94,0,0,1,3.27-2.84"/>
      <path class="cls-3" d="M36.52,20.66a9.53,9.53,0,0,1,0,19.06"/>
    </g>
  </g>
</svg>
