<svg id="Layer_1" data-name="Layer 1" xmlns="http://www.w3.org/2000/svg" viewBox="0 0 1071.57 245.87">
    <defs>
        <style>
            .logo-symbol {
                fill: hsla(0, 0%, 0%, 0.3);
            }

            .logo-letters {
                fill: hsla(0, 0%, 0%, 0.3);
            }

        </style>
    </defs>
    <title>logo</title>
    <path class="logo-symbol" d="M137,46.71,13.29,13.56l33.14,123.7a102.78,102.78,0,0,0,102.79,76.11L188,212.05l22,22h23.81L211,211.26h0L38,38.29l32.24,8.43,82.65,82.65q.78-27.91,1.58-55.82a80.17,80.17,0,0,1,16.68,14.73l-1.71,57.65,42.31,42.3,1.33-38.73A102.79,102.79,0,0,0,137,46.71Z" />
    <g>
        <path class="logo-letters" d="M335.72,143.53H301l-6.6,19.8H273.36l35.77-96.09h18.34l36,96.09H342.39Zm-29.36-16h24l-12.08-36Z" />
        <path class="logo-letters" d="M392.21,147.42h42v15.91H372.42V67.24h19.79Z" />
        <path class="logo-letters" d="M465.4,129.47v33.86H445.6V67.24h37.48a45.24,45.24,0,0,1,15.22,2.38,32.86,32.86,0,0,1,11.35,6.63,28.35,28.35,0,0,1,7.09,10.1,32.52,32.52,0,0,1,2.44,12.7,31.23,31.23,0,0,1-2.44,12.6,26.1,26.1,0,0,1-7.09,9.57,32.76,32.76,0,0,1-11.35,6.11,49.87,49.87,0,0,1-15.22,2.14Zm0-16h17.68a22.63,22.63,0,0,0,7.3-1.06,13.25,13.25,0,0,0,5-2.94,11.32,11.32,0,0,0,2.87-4.52,17.15,17.15,0,0,0,.93-5.74,19.21,19.21,0,0,0-.93-6,14,14,0,0,0-2.87-5.08,13.82,13.82,0,0,0-5-3.53,18.41,18.41,0,0,0-7.3-1.32H465.4Z" />
        <path class="logo-letters" d="M611,163.33h-19.8V122.15h-38.6v41.18h-19.8V67.24h19.8v38.94h38.6V67.24H611Z" />
        <path class="logo-letters" d="M683.7,143.53H649l-6.6,19.8h-21l35.77-96.09h18.34l36,96.09h-21Zm-29.37-16h24l-12.08-36Z" />
        <path class="logo-letters" d="M773.85,147.42h42v15.91H754.05V67.24h19.8Z" />
        <path class="logo-letters" d="M885,121.68H847v25.74h44.61v15.91h-64.4V67.24h64.27v16H847v22.9h38Z" />
        <path class="logo-letters" d="M957.5,143.53H922.79l-6.6,19.8H895.14l35.77-96.09h18.34l36,96.09H964.17Zm-29.36-16h24l-12.08-36Z" />
        <path class="logo-letters" d="M1052,124.06h-38v39.27H994.2V67.24h62.56v16H1014v24.81h38Z" />
    </g>
</svg>
