<svg xmlns="http://www.w3.org/2000/svg" viewBox="0 0 67.06 61.19">
  <defs>
    <style>
      .cls-1 {
        fill: #e9eaeb;
      }

      .cls-2 {
        fill: #fff;
      }

      .cls-2, .cls-3 {
        stroke: #2a5082;
        stroke-miterlimit: 10;
        stroke-width: 2px;
      }

      .cls-3 {
        fill: none;
      }

      .cls-4 {
        fill: #a3d4ff;
      }
    </style>
  </defs>
  <title>online</title>
  <g id="icons">
    <g>
      <circle class="cls-1" cx="23.84" cy="23.73" r="15.35"/>
      <path class="cls-2" d="M9.3,46.35H58.57a0,0,0,0,1,0,0v1.34a5.12,5.12,0,0,1-5.12,5.12H15A5.66,5.66,0,0,1,9.3,47.15v-.8A0,0,0,0,1,9.3,46.35Z"/>
      <line class="cls-3" x1="31.11" y1="49.58" x2="39.99" y2="49.58"/>
      <path class="cls-2" d="M51.43,18.88a3.81,3.81,0,0,1,3.91,3.78V46.35h-42V22.66a3.48,3.48,0,0,1,3.55-3.78Z"/>
      <path class="cls-4" d="M45.38,41.5a11.32,11.32,0,0,0-1.52-3.67l2.48-2.47-3.43-3.43-2.48,2.48a11.25,11.25,0,0,0-3.67-1.53v-3.5H31.92v3.5a11.25,11.25,0,0,0-3.67,1.53l-2.48-2.48-3.42,3.43,2.47,2.47A11.32,11.32,0,0,0,23.3,41.5H19.8v2.42H31.11a3.23,3.23,0,1,1,6.46,0H48.88V41.5Z"/>
      <polyline class="cls-3" points="16.57 43.92 16.57 22.11 52.11 22.11 52.11 43.92"/>
      <path class="cls-3" d="M48.88,43.92V41.5h-3.5a11.32,11.32,0,0,0-1.52-3.67l2.48-2.47-3.43-3.43-2.48,2.48a11.25,11.25,0,0,0-3.67-1.53v-3.5H31.92v3.5a11.25,11.25,0,0,0-3.67,1.53l-2.48-2.48-3.42,3.43,2.47,2.47A11.32,11.32,0,0,0,23.3,41.5H19.8v2.42"/>
      <path class="cls-3" d="M27.07,43.92a7.27,7.27,0,1,1,14.54,0"/>
      <path class="cls-3" d="M31.11,43.92a3.23,3.23,0,1,1,6.46,0"/>
    </g>
  </g>
</svg>
