<svg xmlns="http://www.w3.org/2000/svg" viewBox="0 0 67.06 61.19">
  <defs>
    <style>
      .cls-1 {
        fill: #e9eaeb;
      }

      .cls-2, .cls-5 {
        fill: #a3d4ff;
      }

      .cls-2, .cls-3, .cls-4 {
        stroke: #2a5082;
        stroke-miterlimit: 10;
        stroke-width: 2px;
      }

      .cls-3 {
        fill: none;
      }

      .cls-4 {
        fill: #fff;
      }
    </style>
  </defs>
  <title>support</title>
  <g id="icons">
    <g>
      <circle class="cls-1" cx="33.53" cy="31.4" r="19.79"/>
      <path class="cls-2" d="M47.67,19.69V18.07c0-5.79-6.15-10.5-13.73-10.5S20.2,12.28,20.2,18.07v1.62H18.59v4H49.28v-4Z"/>
      <line class="cls-3" x1="25.86" y1="49.58" x2="25.86" y2="39.89"/>
      <line class="cls-3" x1="42.01" y1="39.89" x2="42.01" y2="49.58"/>
      <path class="cls-4" d="M22.63,29.38v4.77a4.81,4.81,0,0,0,1.06,3l3.94,4.94a4.85,4.85,0,0,0,3.79,1.81h5a4.84,4.84,0,0,0,3.79-1.81l3.94-4.94a4.82,4.82,0,0,0,1.07-3V29.38a4.85,4.85,0,0,0-4.85-4.84H27.47A4.84,4.84,0,0,0,22.63,29.38Z"/>
      <path class="cls-5" d="M21,22.11v2.54c0,2.17,5.34,3.93,12.93,3.93s12.92-1.76,12.92-3.93V22.11Z"/>
      <path class="cls-3" d="M46.86,22.11v2.54c0,2.17-5.34,3.93-12.92,3.93S21,26.82,21,24.65V22.11"/>
      <path class="cls-3" d="M48.48,52V48.77c0-1.57-.76-2.16-2-3.07l-3.62-2.58"/>
      <polyline class="cls-3" points="45.24 47.96 35.55 53.62 35.55 55.23"/>
      <polyline class="cls-3" points="22.63 47.96 32.32 53.62 32.32 55.23"/>
      <path class="cls-3" d="M19.4,51.19V48.77c0-1.57.76-2.16,2-3.07l3.62-2.58"/>
      <polygon class="cls-5" points="37.17 7.57 37.17 5.96 30.7 5.96 30.7 7.57 27.47 7.57 27.47 13.23 30.7 13.23 30.7 16.46 37.17 16.46 37.17 13.23 40.4 13.23 40.4 7.57 37.17 7.57"/>
      <polyline class="cls-3" points="40.4 13.23 40.4 7.57 37.17 7.57"/>
      <polyline class="cls-3" points="27.47 13.23 27.47 7.57 30.7 7.57"/>
      <polyline class="cls-3" points="37.17 16.46 37.17 5.96 30.7 5.96 30.7 16.46"/>
      <path class="cls-3" d="M24.24,22.92h0a9.58,9.58,0,0,0,5.34,1.62h8.71a9.58,9.58,0,0,0,5.34-1.62h0"/>
    </g>
  </g>
</svg>
