<svg xmlns="http://www.w3.org/2000/svg" viewBox="0 0 67.06 61.19">
  <defs>
    <style>
      .cls-1 {
        fill: #e9eaeb;
      }

      .cls-2 {
        fill: #fff;
      }

      .cls-2, .cls-3, .cls-5 {
        stroke: #2a5082;
      }

      .cls-2, .cls-3, .cls-4, .cls-5 {
        stroke-miterlimit: 10;
        stroke-width: 2px;
      }

      .cls-3, .cls-4 {
        fill: none;
      }

      .cls-4 {
        stroke: #bcc0c4;
      }

      .cls-5 {
        fill: #a3d4ff;
      }
    </style>
  </defs>
  <title>tools</title>
  <g id="icons">
    <g>
      <ellipse class="cls-1" cx="33.94" cy="30.49" rx="15.75" ry="15.95"/>
      <path class="cls-2" d="M53.52,14.6,49,19.17a.81.81,0,0,1-1.15,0l-3.43-3.42a.8.8,0,0,1,0-1.14L49,10a6.37,6.37,0,0,0-8,1.14l-1.72,1.72c-2,2-1.51,4.84-.53,7.46L13,46.05a2.44,2.44,0,0,0,0,3.43l1.14,1.14a2.42,2.42,0,0,0,3.43,0l25.71-25.7c2.62,1,5.41,1.38,7.39-.61l1.71-1.71A6.34,6.34,0,0,0,53.52,14.6Z"/>
      <line class="cls-3" x1="16.39" y1="48.29" x2="15.25" y2="47.16"/>
      <path class="cls-4" d="M21,11.82a22.61,22.61,0,0,1,18.59-3"/>
      <path class="cls-4" d="M13.74,41.44a22.63,22.63,0,0,1,0-21.69"/>
      <path class="cls-4" d="M43.63,50.78a22.62,22.62,0,0,1-21.9-1"/>
      <path class="cls-4" d="M55,23.47a22.65,22.65,0,0,1-2.64,19.65"/>
      <line class="cls-3" x1="40.96" y1="22.6" x2="17.54" y2="46.02"/>
      <polygon class="cls-2" points="37.51 38.61 20.38 21.48 17.52 20.91 12.95 14.05 15.23 11.77 22.09 16.34 22.66 19.19 39.8 36.33 37.51 38.61"/>
      <path class="cls-5" d="M35.8,40.33l5.71-5.72s2.86.58,2.86.58,0,3.42,0,3.42l9.13,9.14a2.42,2.42,0,0,1,0,3.43l-1.14,1.14a2.42,2.42,0,0,1-3.43,0L39.8,43.18H36.37S35.79,40.34,35.8,40.33Z"/>
      <line class="cls-3" x1="41.51" y1="40.33" x2="51.22" y2="50.04"/>
    </g>
  </g>
</svg>
