<?xml version="1.0" standalone="no"?>
<!DOCTYPE svg PUBLIC "-//W3C//DTD SVG 20010904//EN"
 "http://www.w3.org/TR/2001/REC-SVG-20010904/DTD/svg10.dtd">
<svg version="1.0" xmlns="http://www.w3.org/2000/svg"
 width="700.000000pt" height="700.000000pt" viewBox="0 0 700.000000 700.000000"
 preserveAspectRatio="xMidYMid meet">
<metadata>
Created by potrace 1.11, written by Peter Selinger 2001-2013
</metadata>
<g transform="translate(0.000000,700.000000) scale(0.100000,-0.100000)"
fill="#000000" stroke="none">
<path d="M4 6982 c3 -9 13 -44 21 -77 9 -33 30 -109 46 -170 16 -60 43 -159
59 -220 16 -60 42 -159 59 -220 16 -60 93 -348 171 -640 78 -291 146 -543 150
-560 5 -16 18 -66 30 -110 11 -44 43 -163 71 -265 27 -102 56 -210 64 -240 42
-153 195 -726 201 -749 2 -9 21 -81 43 -161 21 -80 60 -224 85 -320 73 -272
135 -469 183 -580 43 -97 167 -345 204 -406 81 -133 248 -373 289 -414 3 -3
36 -41 75 -85 215 -247 513 -493 803 -663 303 -179 685 -321 1037 -388 95 -18
100 -18 180 -28 28 -4 59 -9 70 -11 90 -18 345 -22 665 -11 118 4 265 9 325
11 123 4 395 13 585 20 l125 5 350 -350 350 -350 372 0 c205 0 373 2 373 5 0
3 -1395 1400 -3100 3105 -1705 1705 -3096 3100 -3091 3100 5 0 53 -12 106 -26
53 -14 104 -27 113 -29 9 -3 87 -23 172 -45 85 -22 162 -42 170 -44 8 -3 94
-25 190 -51 96 -25 185 -48 197 -51 12 -2 33 -8 45 -13 13 -5 610 -597 1328
-1315 717 -718 1306 -1303 1308 -1301 4 4 7 82 16 420 3 116 8 287 11 380 8
273 14 474 20 720 4 126 8 231 10 233 3 4 171 -112 185 -128 3 -3 37 -32 75
-65 39 -32 114 -104 168 -160 l99 -100 -7 -235 c-3 -129 -8 -278 -10 -330 -2
-52 -7 -214 -11 -360 -3 -146 -8 -301 -9 -345 -1 -44 -5 -190 -9 -325 l-6
-245 670 -669 c602 -602 670 -666 671 -640 0 16 2 58 4 94 3 56 9 243 20 570
2 47 6 189 11 315 11 339 7 570 -11 700 -2 17 -7 55 -11 85 -3 30 -7 57 -9 61
-2 3 -7 28 -10 55 -3 27 -10 63 -15 79 -5 17 -11 41 -14 55 -22 124 -66 269
-151 500 -47 125 -218 461 -278 544 -4 6 -28 43 -54 81 -256 383 -620 727
-1033 975 -99 60 -363 191 -440 219 -19 7 -44 17 -55 22 -65 29 -233 81 -415
130 -333 90 -777 209 -930 249 -102 27 -201 54 -220 60 -48 14 -710 191 -734
196 -10 2 -42 10 -70 18 -28 8 -87 24 -131 36 -447 119 -799 213 -840 225 -27
8 -142 39 -255 69 -113 30 -239 64 -280 74 -431 115 -382 104 -376 84z"/>
</g>
</svg>
